<svg width="196" height="33" viewBox="0 0 196 33" fill="none" xmlns="http://www.w3.org/2000/svg">
<mask id="mask0_5631_5813" style="mask-type:luminance" maskUnits="userSpaceOnUse" x="0" y="1" width="14" height="14">
<path d="M0 1.82797H13.0762V14.5793H0V1.82797Z" fill="white"/>
</mask>
<g mask="url(#mask0_5631_5813)">
<path fill-rule="evenodd" clip-rule="evenodd" d="M0.238694 10.744C0.69493 9.72401 1.34552 8.82901 1.99611 7.93234C2.81305 6.82401 5.61634 3.51568 6.23399 2.93234C7.39846 1.76568 8.20552 1.55734 9.3354 2.14734C11.3218 3.05734 13.4745 4.07901 13.0133 5.35068C12.6032 6.82401 10.5509 5.74068 9.04222 4.72401C8.50528 4.40568 8.13799 4.34568 7.72128 4.87734C7.3754 5.33401 7.02458 5.71568 6.69187 6.14234C6.41187 6.44901 6.45469 6.82901 6.84505 7.08068C8.06552 7.78401 8.97964 8.05901 8.62881 9.16234C8.05728 10.599 6.72481 9.66568 5.17493 9.13568C4.56716 8.89401 4.29375 8.94901 3.90505 9.42068C3.65305 9.73901 3.40599 10.134 3.17211 10.4973C2.92834 10.964 3.04528 11.3407 3.57728 11.5857C5.44505 12.4423 6.89611 12.2373 6.54528 13.7407C6.44646 14.2007 6.00834 14.5423 5.45493 14.579C4.87187 14.6007 1.46246 13.4373 1.07869 13.2623C0.0212826 12.669 -0.258717 11.854 0.238694 10.744Z" fill="#F3EEE7"/>
</g>
<path fill-rule="evenodd" clip-rule="evenodd" d="M17.9489 19.6942C18.6851 18.5592 19.4411 17.4658 21.2792 14.8392C21.7849 14.0758 22.1308 13.5708 21.8985 13.2442C21.6679 12.9192 21.1491 13.2225 20.6599 13.5392L18.7576 14.9575C17.7084 15.7025 17.1402 15.8508 16.5374 15.6025C15.5442 15.1825 15.7171 13.9875 15.9197 12.6992C15.9988 12.1692 16.1058 11.8592 15.7385 11.7292C15.4305 11.6192 15.1604 11.9075 14.8541 12.2892C13.8279 13.5642 12.8743 14.8308 11.919 16.2008C11.2865 17.2325 10.5915 17.5458 9.97053 17.1525C9.44018 16.7908 9.2343 16.0892 9.55218 15.4692C10.2308 14.0008 14.2941 9.02083 16.0515 7.13083C16.7416 6.3275 17.5058 6.0075 18.1202 6.22416C19.4411 6.69083 19.1529 8.8225 18.9042 10.4408C18.8366 10.8375 18.8663 11.0542 19.1496 11.2258C19.4477 11.3658 19.6536 11.2642 20.2366 10.8775C21.6795 9.99416 24.1863 8.7175 25.2305 9.0875C25.8745 9.31416 26.2254 9.9975 26.1315 10.8692C26.0014 12.0442 24.9621 13.5592 24.2258 14.6942C22.5623 17.3142 20.2399 20.7475 19.6865 21.2508C19.1974 21.6708 18.5698 21.6908 18.0922 21.2775C17.5915 20.9275 17.5404 20.2825 17.9489 19.6942Z" fill="#F3EEE7"/>
<path fill-rule="evenodd" clip-rule="evenodd" d="M32.8769 14.4192C32.8176 13.7558 32.3119 13.7542 31.6762 14.1242C30.0505 15.2858 28.6736 16.7842 28.1152 18.8825C27.8797 19.7725 27.9143 20.3958 28.4002 20.5975C29.5976 21.1625 32.9246 16.1358 32.8769 14.4192ZM25.7435 21.3375C24.7355 18.1642 27.5668 13.8558 30.6978 11.8458C31.2644 11.4892 31.8689 11.2458 32.4387 11.1275C33.3413 11.0325 33.8091 11.2975 34.1747 12.0792C34.3427 12.4642 34.519 12.6842 34.766 12.8875C35.5962 13.6942 35.4067 15.5525 34.7825 16.8825C33.567 19.4142 31.8162 21.9392 29.5811 22.9975C27.8764 23.8292 26.3413 23.1375 25.7435 21.3375Z" fill="#F3EEE7"/>
<path fill-rule="evenodd" clip-rule="evenodd" d="M38.1175 23.9439C39.3561 21.9872 42.1462 16.7272 42.3685 15.6639C42.4295 15.3722 42.3553 15.0889 42.0045 15.0139C40.2866 14.6472 38.4041 14.5822 37.6398 14.4189C37.2577 14.3372 36.9925 14.0122 36.9481 13.4305C36.8575 12.7372 37.5871 12.1189 38.4403 12.1689C40.7626 12.1905 42.4328 12.4805 48.6356 13.8372C49.8775 14.1022 50.4012 14.6172 50.2398 15.3905C50.1278 15.9372 49.6073 16.3655 48.9881 16.3005C48.2106 16.2022 47.1516 16.0105 46.5158 15.8739C45.2739 15.6105 45.157 15.6855 44.5921 16.8105C43.169 19.8055 41.5153 23.1205 40.1269 25.3139C39.5504 26.1672 38.7302 26.4305 38.1356 25.9322C37.5393 25.4372 37.5344 24.8289 38.1175 23.9439Z" fill="#F3EEE7"/>
<path fill-rule="evenodd" clip-rule="evenodd" d="M52.8046 16.2338C53.1966 15.6672 53.7962 15.4355 54.287 15.6538C55.0315 15.9472 55.1352 16.7005 54.6279 17.9488C53.7748 20.1055 52.5988 22.0072 51.4969 24.0538C50.2089 26.4372 49.5846 28.0005 48.4366 27.3705C47.1174 26.7755 48.1583 25.0855 48.9225 23.6805C50.5268 20.9855 52.4341 16.8722 52.8046 16.2338Z" fill="#F3EEE7"/>
<path fill-rule="evenodd" clip-rule="evenodd" d="M61.8211 20.0067C61.6778 19.3567 61.1771 19.42 60.5924 19.8733C59.1298 21.235 57.9554 22.9017 57.6688 25.055C57.5453 25.9683 57.6622 26.5817 58.1695 26.7183C59.4279 27.1233 62.0879 21.705 61.8211 20.0067ZM55.6281 27.8C54.2248 24.785 56.4846 20.1433 59.3324 17.7417C59.8495 17.3133 60.4178 16.9917 60.9679 16.8017C61.8507 16.5883 62.3481 16.79 62.8093 17.5183C63.0234 17.88 63.2277 18.0733 63.5011 18.2433C64.4267 18.9333 64.4728 20.8017 64.0248 22.2017C63.1437 24.8717 61.7272 27.6033 59.647 28.945C58.0608 29.9917 56.4517 29.5067 55.6281 27.8Z" fill="#F3EEE7"/>
<path fill-rule="evenodd" clip-rule="evenodd" d="M64.9998 28.7307C65.0409 28.2723 66.011 25.7807 66.8478 24.0723C68.3466 20.7723 69.6296 17.3523 70.9555 17.4723C71.3805 17.4773 71.7527 17.709 72.0129 18.0957C72.4148 18.6957 72.8332 21.0107 72.9946 22.514L73.1774 23.7523C73.296 24.2573 73.3734 24.4973 73.7308 24.529C74.1525 24.5673 74.3699 23.9257 74.9727 22.6573C75.7798 20.9157 76.651 19.1757 77.3132 18.7057C77.5536 18.5623 77.7908 18.4857 78.1136 18.514C78.5995 18.5573 79.2056 19.0757 79.1068 19.8273C79.087 20.0573 78.9668 20.309 78.812 20.5923C77.3675 22.909 76.9113 23.9907 75.3285 27.5157C75.0023 28.2457 74.6334 29.1057 74.1558 30.084C73.9169 30.5607 73.5019 30.819 73.0489 30.779C72.5943 30.7373 72.1612 30.4673 71.8482 29.944C71.3376 29.0707 71.3656 28.0157 70.7035 23.6607C70.5816 23.2207 70.0645 23.1407 69.8355 23.5173C68.9165 25.0523 67.9579 27.4107 67.3633 28.9757C67.024 29.8723 66.464 30.284 65.7969 30.0573C65.2913 29.879 64.9454 29.3523 64.9998 28.7307Z" fill="#F3EEE7"/>
<path fill-rule="evenodd" clip-rule="evenodd" d="M85.1001 25.9425C85.4081 24.3108 85.4197 24.0475 85.1347 23.9342C84.4973 23.6058 82.9655 25.6375 83.262 26.2475C83.3773 26.5492 83.6343 26.5958 84.1877 26.6225C84.6423 26.6458 85.0112 26.4325 85.1001 25.9425ZM84.3837 29.9292C84.438 29.5025 84.1943 29.1275 83.7743 29.0742L81.7006 28.8708C81.3416 28.8525 81.106 29.0058 80.826 29.3875C80.1606 30.3442 79.3223 31.5225 79.0505 31.7392C78.614 32.0142 78.0623 31.9858 77.6538 31.6692C77.0559 31.2442 77.0592 30.5175 77.7575 29.5308L80.714 25.0642C81.946 23.1808 84.9239 19.5725 86.1279 18.9075C87.1985 18.3358 88.2164 18.8808 88.3218 20.0392C88.419 21.3942 86.9646 30.4542 86.543 31.7508C86.3519 32.3342 85.8166 32.6375 85.2352 32.5092C84.1383 32.2908 84.3145 31.3425 84.3837 29.9292Z" fill="#F3EEE7"/>
<path fill-rule="evenodd" clip-rule="evenodd" d="M89.8798 30.5145C89.7925 29.7878 90.9059 26.8428 92.0902 23.6012C92.5942 22.2245 93.1031 20.8495 93.5775 19.4412C93.953 18.2612 94.4438 17.8745 95.2229 18.0828C96.0332 18.2912 96.249 19.0195 95.8109 20.2628C94.9972 22.6212 94.1836 24.9462 93.6779 26.3545C93.1031 27.9595 92.8001 28.6462 93.253 28.8828C93.4786 29.0195 94.0008 28.9595 95.1405 28.7445C96.1535 28.5612 96.9968 28.6062 97.1153 29.5645C97.2026 30.1562 96.8699 30.7112 96.3149 30.8695C94.8111 31.3412 91.8118 31.9245 91.2271 31.8828C90.4464 31.8395 89.9984 31.3728 89.8798 30.5145Z" fill="#F3EEE7"/>
<path fill-rule="evenodd" clip-rule="evenodd" d="M107.991 29.284C108.457 27.179 109.159 21.2373 109.365 19.709C109.503 18.7123 109.93 18.1923 110.546 18.1557C111.39 18.139 111.926 18.9323 111.754 19.9323C111.626 21.0923 111.231 23.8207 111.269 24.5107C111.288 24.8373 111.69 25.0457 111.97 24.799C112.341 24.4473 113.069 23.514 113.54 23.2223C114.326 22.6807 115.18 22.8607 115.688 23.7223C116.152 24.454 116.159 26.2657 116.781 26.329C117.34 26.3957 117.992 24.7073 119.015 22.109C120.214 19.1373 120.721 17.1957 122.119 17.7073C122.622 17.9407 122.95 18.549 122.785 19.1173C122.553 20.154 118.25 30.3623 117.802 31.049C117.084 32.179 115.744 32.094 115.187 30.9057C114.777 30.0073 114.558 29.0307 114.339 28.0207C114.077 26.884 113.65 26.8107 112.888 27.7123C110.552 30.749 110.341 31.0573 110.157 31.2657C109.696 31.7223 109.182 31.8523 108.648 31.6523C107.948 31.364 107.706 30.554 107.991 29.284Z" fill="#F3EEE7"/>
<path fill-rule="evenodd" clip-rule="evenodd" d="M124.57 28.9277C124.457 27.8143 124.57 26.7093 124.686 25.6043C124.837 24.231 125.605 19.9427 125.847 19.1227C126.269 17.521 126.865 16.9293 128.131 16.861C130.301 16.6293 132.667 16.4127 132.905 17.7443C133.287 19.2277 130.976 19.341 129.164 19.2343C128.542 19.2343 128.196 19.371 128.103 20.0427C128.031 20.6127 127.919 21.121 127.843 21.6593C127.756 22.066 127.983 22.3727 128.444 22.391C129.849 22.3727 130.775 22.1443 131.022 23.276C131.246 24.8077 129.63 24.6827 128.029 25.0177C127.385 25.1193 127.174 25.306 127.074 25.9127C127.016 26.3177 127 26.7827 126.98 27.216C127.003 27.7427 127.291 28.0093 127.874 27.9477C129.914 27.731 131.062 26.8143 131.51 28.291C131.654 28.7393 131.445 29.2577 130.987 29.5727C130.497 29.8877 126.974 30.6277 126.552 30.671C125.345 30.6993 124.696 30.141 124.57 28.9277Z" fill="#F3EEE7"/>
<path fill-rule="evenodd" clip-rule="evenodd" d="M134.434 28.384C134.24 27.679 134.897 24.5957 135.579 21.2073C135.875 19.7707 136.168 18.334 136.425 16.8673C136.618 15.6423 137.048 15.184 137.847 15.2707C138.68 15.3523 139.005 16.039 138.758 17.3357C138.308 19.7923 137.853 22.2173 137.563 23.6873C137.236 25.3623 137.041 26.0873 137.524 26.2523C137.766 26.3507 138.275 26.2123 139.37 25.8257C140.342 25.489 141.184 25.4023 141.444 26.3307C141.62 26.9023 141.376 27.504 140.851 27.7423C139.436 28.4407 136.557 29.479 135.972 29.529C135.195 29.6057 134.681 29.2123 134.434 28.384Z" fill="#F3EEE7"/>
<path fill-rule="evenodd" clip-rule="evenodd" d="M143.319 27.1112C143.1 26.4145 143.65 23.3078 144.213 19.8995C144.457 18.4512 144.702 17.0045 144.908 15.5312C145.06 14.2995 145.471 13.8245 146.275 13.8828C147.11 13.9362 147.459 14.6095 147.257 15.9145C146.891 18.3878 146.522 20.8262 146.283 22.3045C146.015 23.9912 145.844 24.7228 146.333 24.8695C146.578 24.9595 147.081 24.8028 148.163 24.3778C149.121 24.0062 149.961 23.8895 150.253 24.8078C150.451 25.3745 150.225 25.9828 149.709 26.2428C148.319 26.9912 145.478 28.1295 144.895 28.1995C144.121 28.3045 143.594 27.9312 143.319 27.1112Z" fill="#F3EEE7"/>
<path fill-rule="evenodd" clip-rule="evenodd" d="M152.239 25.4657C152.137 25.0157 152.304 22.3457 152.58 20.459C153.005 16.8507 153.185 13.199 154.484 12.899C154.889 12.7723 155.313 12.8757 155.678 13.164C156.245 13.6073 157.345 15.684 157.956 17.0623L158.508 18.184C158.775 18.6273 158.921 18.8323 159.269 18.7523C159.681 18.6557 159.696 17.979 159.883 16.5857C160.12 14.6723 160.422 12.7473 160.909 12.0957C161.096 11.884 161.295 11.7373 161.611 11.664C162.087 11.554 162.823 11.8573 162.958 12.6023C163.008 12.8273 162.972 13.1057 162.909 13.424C162.237 16.0757 162.133 17.2473 161.697 21.0957C161.609 21.8907 161.519 22.824 161.362 23.9057C161.278 24.4323 160.964 24.8073 160.519 24.9107C160.076 25.014 159.58 24.889 159.124 24.489C158.373 23.819 158.078 22.8057 156.125 18.8673C155.874 18.4873 155.36 18.5707 155.255 18.999C154.848 20.7473 154.652 23.2907 154.562 24.9657C154.509 25.9223 154.102 26.4873 153.4 26.4807C152.864 26.4707 152.374 26.0757 152.239 25.4657Z" fill="#F3EEE7"/>
<path fill-rule="evenodd" clip-rule="evenodd" d="M166.284 21.6978C165.976 20.6228 165.895 19.5162 165.815 18.4078C165.722 17.0295 165.727 12.6762 165.821 11.8245C165.958 10.1745 166.437 9.48617 167.674 9.1895C169.766 8.5745 172.055 7.93617 172.521 9.2045C173.159 10.5945 170.904 11.1195 169.104 11.3412C168.491 11.4528 168.175 11.6478 168.201 12.3262C168.231 12.9012 168.211 13.4195 168.231 13.9612C168.214 14.3778 168.493 14.6395 168.947 14.5745C170.328 14.3062 171.196 13.9128 171.64 14.9828C172.129 16.4512 170.515 16.6162 168.998 17.2328C168.384 17.4478 168.211 17.6712 168.218 18.2845C168.234 18.6912 168.298 19.1545 168.353 19.5812C168.466 20.0978 168.797 20.3078 169.359 20.1428C171.329 19.5645 172.297 18.4578 172.996 19.8295C173.216 20.2445 173.104 20.7912 172.708 21.1812C172.281 21.5828 168.944 22.9395 168.537 23.0578C167.355 23.3045 166.618 22.8678 166.284 21.6978Z" fill="#F3EEE7"/>
<path fill-rule="evenodd" clip-rule="evenodd" d="M176.862 18.991C176.458 18.4377 176.473 17.6993 176.923 17.2193C177.344 16.751 177.85 16.7077 178.433 17.0893C179.123 17.5727 179.876 17.6477 180.68 17.286C182.31 16.5193 181.838 14.416 179.924 13.5027C179.029 13.1277 177.01 12.4993 176.443 12.0777C175.501 11.371 175.236 10.5227 175.539 9.43267C176.145 7.63767 178.191 5.70434 180.352 4.88267C181.179 4.58101 181.749 4.72267 182.06 5.31101C182.424 5.94767 182.17 6.49434 181.187 7.13267C180.375 7.56767 179.561 8.00434 178.878 8.70767C177.791 9.83767 177.903 10.146 179.281 10.6227C181.614 11.3493 182.936 12.4427 183.822 14.2543C184.644 15.9827 183.883 18.2193 182.147 19.271C180.413 20.3227 177.703 20.1893 176.862 18.991Z" fill="#F3EEE7"/>
<path fill-rule="evenodd" clip-rule="evenodd" d="M188.61 14.5933C188.16 14.0783 188.111 13.34 188.519 12.8233C188.899 12.32 189.399 12.2333 190.013 12.5633C190.743 12.985 191.499 12.995 192.271 12.5633C193.827 11.6567 193.18 9.60334 191.194 8.86168C190.273 8.56501 188.206 8.11334 187.607 7.74168C186.607 7.12001 186.269 6.29668 186.48 5.18501C186.931 3.34334 188.806 1.24001 190.891 0.233344C191.688 -0.138323 192.268 -0.0449896 192.627 0.511677C193.045 1.11501 192.836 1.68168 191.912 2.40334C191.138 2.90668 190.365 3.41334 189.744 4.17334C188.758 5.39168 188.895 5.69168 190.309 6.04668C192.694 6.56834 194.104 7.54334 195.14 9.27001C196.107 10.9217 195.539 13.2167 193.898 14.415C192.259 15.6117 189.548 15.715 188.61 14.5933Z" fill="#F3EEE7"/>
</svg>
