<svg width="24" height="24" viewBox="0 0 24 24" fill="none" xmlns="http://www.w3.org/2000/svg">
<rect x="0.9" y="0.9" width="22.2" height="22.2" rx="5.1" stroke="#D9D9D9" stroke-width="1.8"/>
<path d="M10.58 19.5V10.5H8.52V8.72H10.58V7.96C10.58 7.18667 10.7467 6.53333 11.08 6C11.4267 5.46667 11.88 5.06 12.44 4.78C13.0133 4.5 13.6467 4.36 14.34 4.36C14.4867 4.36 14.6467 4.37333 14.82 4.4C15.0067 4.41333 15.16 4.43333 15.28 4.46V6.12C15.1733 6.09333 15.0467 6.08 14.9 6.08C14.7533 6.06667 14.64 6.06 14.56 6.06C13.9467 6.06 13.44 6.20667 13.04 6.5C12.6533 6.79333 12.46 7.28 12.46 7.96V8.72H15.02V10.5H12.46V19.5H10.58Z" fill="#D9D9D9"/>
</svg>
