<svg width="75" height="130" viewBox="0 0 75 130" fill="none" xmlns="http://www.w3.org/2000/svg">
<path fill-rule="evenodd" clip-rule="evenodd" d="M16.5339 66.4551C16.5339 54.4765 16.5168 42.4975 16.5466 30.5189C16.5535 27.7688 16.7183 25.0192 16.8158 22.2695C16.8415 21.5584 16.9162 21.1344 17.8623 20.8465C21.8703 19.6258 26.0003 19.4045 30.1099 19.0177C39.8403 18.1022 49.5988 18.2727 59.3516 18.3728C61.0619 18.3906 62.7713 18.7351 64.4751 18.9759C65.1948 19.0777 65.8063 19.3858 65.8753 20.2748C66.2363 24.9046 66.8418 29.5286 66.925 34.1629C67.1066 44.3131 67.067 54.4682 67.0396 64.6213C67.0131 74.4786 66.7932 84.3367 66.8548 94.1932C66.8781 97.972 67.4219 101.75 67.7773 105.524C67.9319 107.176 67.7997 107.4 66.2225 107.341C58.5279 107.052 50.8346 106.718 43.1384 106.479C36.4112 106.269 29.7379 106.952 23.0841 107.903C21.7847 108.089 20.451 108.011 19.1352 108.093C18.6383 108.123 18.134 108.213 17.6575 108.359C16.8721 108.599 16.4429 108.319 16.3397 107.527C16.2875 107.124 16.3091 106.71 16.3091 106.301C16.3079 93.0188 16.3083 79.7367 16.3083 66.4547C16.3834 66.4551 16.4584 66.4551 16.5339 66.4551Z" fill="#E7E1D9"/>
<mask id="mask0_5631_5491" style="mask-type:luminance" maskUnits="userSpaceOnUse" x="0" y="0" width="75" height="130">
<path d="M0 0.179443H74.8085V129.587H0V0.179443Z" fill="white"/>
</mask>
<g mask="url(#mask0_5631_5491)">
<path fill-rule="evenodd" clip-rule="evenodd" d="M14.2093 126.392C14.2007 126.432 14.1913 126.472 14.1827 126.512C14.488 126.61 14.7864 126.758 15.0991 126.798C18.6315 127.25 22.1556 127.873 25.7028 128.076C29.5556 128.298 33.4331 128.042 37.2962 128.143C47.0261 128.396 56.7294 127.923 66.4261 127.209C66.8934 127.174 67.4565 127.124 67.7917 126.852C69.4618 125.498 70.9319 124.002 71.6901 121.864C72.5266 119.504 72.6823 117.075 72.722 114.633C72.7852 110.774 72.6983 106.913 72.7196 103.054C72.7921 89.9159 72.8868 76.7789 72.9646 63.6415C72.97 62.715 72.9048 61.7881 72.877 60.8616C72.7192 55.5968 72.4097 50.3316 72.4413 45.0684C72.4872 37.4285 72.8257 29.7911 72.9458 22.1509C73.0011 18.6309 72.9122 15.1032 72.7434 11.5862C72.6052 8.7105 71.2823 6.64 69.197 5.68254C69.3495 6.06057 69.4602 6.36349 69.5921 6.6565C71.0626 9.92796 71.5958 13.3513 71.479 16.9385C71.2069 25.282 70.9245 33.6276 70.8429 41.974C70.7311 53.4029 70.8852 64.8342 70.7704 76.2626C70.6466 88.5433 70.3667 100.823 70.0905 113.101C70.0532 114.756 69.7798 116.438 69.3696 118.044C68.477 121.539 66.7319 124.269 62.7032 124.579C60.8065 124.726 58.9097 124.876 57.0155 125.051C53.3171 125.392 49.6245 125.824 45.9204 126.082C42.2479 126.336 38.554 126.306 34.8872 126.612C30.0306 127.017 25.1835 127.225 20.3204 126.861C18.2827 126.709 16.2462 126.549 14.2093 126.392ZM3.03516 90.5304C3.03516 93.1098 2.96549 98.1204 3.05688 103.128C3.1327 107.274 3.33311 111.421 3.60196 115.559C3.79212 118.49 5.20483 120.86 7.76958 122.24C9.53065 123.187 11.4819 124.04 13.4331 124.311C17.252 124.842 21.1286 125.127 24.9839 125.159C28.7667 125.189 32.5507 124.751 36.3364 124.567C42.9155 124.248 49.4962 123.972 56.0753 123.667C59.2339 123.521 62.2593 122.867 65.0671 121.317C66.0655 120.766 66.7979 120.06 67.011 118.917C67.3233 117.244 67.7598 115.573 67.8593 113.884C68.0622 110.443 68.0975 106.991 68.1622 103.543C68.3298 94.5311 68.5274 85.5194 68.6179 76.5069C68.7319 65.1165 68.7409 53.7256 68.8216 42.3347C68.8393 39.8503 68.9909 37.3662 69.0454 34.8814C69.2126 27.2085 69.4413 19.536 69.4916 11.8623C69.5241 6.77701 66.502 3.22739 61.5179 2.29181C59.6089 1.934 57.6438 1.71774 55.7044 1.71635C48.5216 1.71238 41.3376 1.79285 34.1552 1.90139C26.2077 2.02149 18.2483 1.77057 10.3233 2.68717C8.16549 2.93644 5.9577 3.03673 4.67532 5.10765C3.97081 6.24546 3.27532 7.55247 3.12614 8.84752C2.5663 13.7004 1.85237 18.5835 1.88803 23.45C1.99008 37.3576 1.73885 51.2704 2.5577 65.1747C3.00647 72.7984 2.86835 80.4565 3.03516 90.5304ZM1.0745 89.3249C0.925322 81.1118 1.02327 74.3106 0.632289 67.5378C-0.159925 53.8197 0.0187641 40.0962 0.0142559 26.3732C0.0126166 20.6973 0.231469 15.0269 1.35893 9.43603C1.93926 6.55993 3.06917 4.06476 5.91876 2.75733C6.82614 2.34092 7.69663 1.92698 8.75852 2.36568C9.15565 2.52911 9.70114 2.35866 10.1741 2.3013C13.6741 1.88076 17.1643 1.19527 20.6737 1.06898C32.1204 0.65752 43.5737 0.422281 55.0261 0.187456C57.0413 0.146599 59.0958 0.252662 61.0753 0.611297C65.1372 1.34796 68.7216 3.23276 71.8491 5.9219C73.4413 7.29123 74.1606 9.26022 74.2315 11.2791C74.4638 17.91 74.6003 24.5466 74.6347 31.1815C74.6577 35.5194 74.3179 39.8589 74.3573 44.1964C74.427 51.8738 74.7536 59.5488 74.8011 67.2266C74.8479 74.72 74.6638 82.2146 74.6122 89.7088C74.5573 97.7238 74.5626 105.739 74.4921 113.754C74.4647 116.866 74.5302 120.038 73.1503 122.923C72.4134 124.464 71.4356 125.928 70.3569 127.254C69.3364 128.508 67.7171 128.658 66.2036 128.755C61.3917 129.06 56.5794 129.445 51.7618 129.553C46.7925 129.665 41.8167 129.471 36.8442 129.443C32.9032 129.421 28.9626 129.466 25.022 129.448C20.9454 129.43 16.9458 128.842 13.0843 127.509C9.10196 126.135 5.91753 123.489 3.29663 120.328C2.21426 119.022 1.82573 116.931 1.61631 115.138C1.23967 111.908 1.13803 108.635 1.09581 105.378C1.0204 99.5533 1.0745 93.7276 1.0745 89.3249Z" fill="#02374E"/>
</g>
<path fill-rule="evenodd" clip-rule="evenodd" d="M13.4401 16.5109V102.599C29.424 99.0426 45.2574 99.5472 61.1536 100.478C61.1267 100.169 61.1136 99.8773 61.0737 99.5894C60.2993 93.9789 60.077 88.3389 60.172 82.6808C60.3952 69.4066 60.7053 56.1336 60.8056 42.8586C60.8583 35.9115 60.5539 28.9619 60.3862 22.0143C60.3381 20.02 60.2038 18.0286 60.0953 15.7485C44.4007 14.3602 28.7888 14.421 13.4401 16.5109ZM11.9685 61.8824C11.9685 49.9034 11.9514 37.9248 11.9811 25.9462C11.9877 23.1958 12.1529 20.4465 12.2504 17.6965C12.2757 16.9854 12.3508 16.5618 13.2965 16.2739C17.3049 15.0531 21.4349 14.8314 25.5445 14.445C35.2749 13.5296 45.0334 13.7 54.7863 13.7997C56.4961 13.8175 58.2064 14.1621 59.9093 14.4028C60.6294 14.5042 61.2405 14.8132 61.3099 15.7022C61.6714 20.3315 62.276 24.9559 62.3592 29.5898C62.5412 39.74 62.5016 49.8955 62.4743 60.0486C62.4473 69.9059 62.2278 79.7636 62.289 89.62C62.3131 93.3993 62.8565 97.1777 63.2115 100.952C63.3669 102.603 63.2343 102.827 61.6571 102.768C53.9621 102.479 46.2692 102.145 38.573 101.906C31.8454 101.697 25.1724 102.379 18.5182 103.33C17.2192 103.516 15.8851 103.439 14.5698 103.52C14.0729 103.551 13.5682 103.64 13.0921 103.786C12.3067 104.026 11.8775 103.746 11.7743 102.954C11.7221 102.55 11.7437 102.137 11.7437 101.728C11.7425 88.4456 11.7429 75.164 11.7429 61.882C11.8179 61.882 11.893 61.8824 11.9685 61.8824Z" fill="#02374E"/>
<path fill-rule="evenodd" clip-rule="evenodd" d="M31.9415 113.325C31.9877 113.562 32.0091 113.908 32.1223 114.214C32.6631 115.676 34.2304 116.737 35.6013 116.598C37.2958 116.427 38.8491 115.152 39.1706 113.601C39.2585 113.177 39.2981 112.665 39.1586 112.277C38.7834 111.236 38.3973 110.17 37.8351 109.243C37.0244 107.905 35.9241 107.632 34.564 108.309C32.6308 109.271 32.1495 111.166 31.9415 113.325ZM36.1181 107.135C37.8129 107.279 39.2635 109.147 40.4852 111.243C41.4689 112.932 41.1699 114.695 40.143 116.234C38.8708 118.14 37.0559 119.077 34.8793 118.865C32.7148 118.655 31.1829 117.343 30.3407 115.191C28.9892 111.738 31.8101 107.133 36.1181 107.135Z" fill="#02374E"/>
<path fill-rule="evenodd" clip-rule="evenodd" d="M30.2706 7.47452C32.7115 9.61344 42.1674 9.40631 43.9275 7.16914C43.5225 7.03214 43.167 6.8454 42.7936 6.79648C40.0691 6.43768 37.3482 5.99652 34.6108 5.80938C33.0145 5.70011 31.5534 6.40262 30.2706 7.47452ZM38.0711 4.57275C40.0274 4.8761 41.9906 5.14275 43.9368 5.50032C44.7806 5.65526 45.7013 6.11272 45.6499 7.05375C45.6127 7.73302 45.0913 8.54683 44.5428 9.00511C43.0784 10.2279 41.222 10.5345 39.4089 10.4346C36.9223 10.298 34.4506 9.88865 31.9737 9.58571C31.7245 9.55513 31.4761 9.47318 31.2411 9.38022C30.4045 9.04833 29.4082 8.82041 29.3503 7.68368C29.2904 6.51678 30.2564 6.22729 31.1056 5.89296C33.3341 5.01554 35.6431 4.6702 38.0339 4.87651C38.0464 4.77539 38.0586 4.67428 38.0711 4.57275Z" fill="#02374E"/>
</svg>
