<svg width="52" height="49" viewBox="0 0 52 49" fill="none" xmlns="http://www.w3.org/2000/svg">
<path fill-rule="evenodd" clip-rule="evenodd" d="M37.0173 19.1111C39.7259 19.0958 41.4496 18.5047 42.4728 17.3838C44.0909 15.6091 44.8189 13.4807 44.7592 11.098C44.7118 9.0676 43.9945 7.28523 42.5768 5.81523C42.0919 5.31451 41.6438 4.69895 41.0489 4.40648C39.5302 3.66382 37.857 3.45098 36.2113 3.79551C30.6596 4.95926 28.2064 11.2956 31.4732 15.9184C32.9919 18.0668 35.1438 18.9794 37.0173 19.1111ZM37.2253 2.85379C37.8983 2.95945 38.6676 3.04367 39.4185 3.20904C40.6941 3.48773 41.7157 4.23192 42.6548 5.10473C44.6292 6.93917 45.6601 9.20848 45.5851 11.905C45.5239 14.0442 44.8908 16.0333 43.5357 17.7329C42.1256 19.4985 40.197 20.2059 38.013 20.2473C34.8792 20.31 32.5132 18.9579 30.499 16.5171C27.2857 12.6186 29.2005 4.29776 35.9728 2.97782C36.349 2.90432 36.7405 2.89973 37.2253 2.85379Z" fill="#DBC0BD"/>
<path fill-rule="evenodd" clip-rule="evenodd" d="M44.4027 44.3647C44.4027 45.357 44.418 46.0751 44.389 46.7918C44.3829 46.9464 44.2467 47.1792 44.1198 47.2205C43.9852 47.2649 43.7267 47.1746 43.635 47.0551C43.5187 46.9036 43.4836 46.6662 43.4713 46.4626C43.3306 44.4291 43.2175 42.394 43.0615 40.3636C42.9972 39.5428 42.8473 38.7282 42.7311 37.9136C42.702 37.7038 42.6103 37.4986 42.621 37.295C42.6332 37.0882 42.7342 36.8876 42.7953 36.684C42.9513 36.8264 43.1915 36.9412 43.248 37.1173C43.4897 37.8661 43.7619 38.6195 43.8675 39.3943C44.1045 41.1338 44.2483 42.884 44.4027 44.3647Z" fill="#DBC0BD"/>
<mask id="mask0_5631_5796" style="mask-type:luminance" maskUnits="userSpaceOnUse" x="48" y="27" width="4" height="20">
<path d="M48.4941 27.4547H51.9358V46.3258H48.4941V27.4547Z" fill="white"/>
</mask>
<g mask="url(#mask0_5631_5796)">
<path fill-rule="evenodd" clip-rule="evenodd" d="M51.3251 38.8288C51.0024 35.1783 50.6613 31.534 49.2237 28.1055C49.1656 27.9661 49.1457 27.8467 49.1625 27.7334C49.083 27.6476 49.0126 27.5558 48.9545 27.4547C48.7832 27.493 48.6241 27.5496 48.4941 27.6461C48.5461 27.8207 48.5752 28.0029 48.5752 28.1851C48.641 28.1438 48.7083 28.1086 48.7725 28.0687C49.0692 29.3626 49.4776 30.5815 49.606 31.8295C49.8676 34.3652 49.9777 36.9163 50.1474 39.4597C50.2576 41.0767 50.3172 42.6968 50.4961 44.3061C50.5619 44.888 50.8785 45.4561 51.1507 45.9951C51.2348 46.1635 51.5514 46.2171 51.761 46.3258C51.8221 46.087 51.9537 45.8435 51.9338 45.6138C51.7441 43.3506 51.5254 41.0905 51.3251 38.8288Z" fill="#DBC0BD"/>
</g>
<path fill-rule="evenodd" clip-rule="evenodd" d="M48.7818 28.1191C48.8598 28.0272 48.9561 27.9522 49.0601 27.8818C49.0953 27.8374 49.1336 27.7991 49.1749 27.7608C49.1901 27.6306 49.2391 27.5051 49.3492 27.3703C50.1185 26.4225 50.3739 25.3139 50.0772 24.1425C49.649 22.4627 48.3046 21.6863 46.3867 21.8012C44.1614 21.9344 41.93 22.0492 39.7017 22.0646C36.4501 22.0875 33.194 22.1166 29.9501 21.9528C26.4447 21.7736 22.947 21.3893 19.4492 21.0723C16.5296 20.8089 13.6145 20.7538 10.7316 21.351C6.67403 22.1901 3.65038 24.3522 2.1852 28.3702C1.9405 29.044 1.82732 29.7637 1.6392 30.4589C0.78579 33.6163 0.417202 36.8503 0.115908 40.0904C-0.0125627 41.4716 0.0317903 42.8696 0.00579026 44.2585C-0.0018568 44.8036 -0.00338621 45.3472 0.0241432 45.8893C0.0317903 46.0256 0.167908 46.1557 0.244378 46.2874C0.389673 46.1281 0.409555 46.0286 0.414143 45.9291C0.49979 44.208 0.489084 42.4746 0.684849 40.7657C1.06567 37.4475 1.48014 34.1339 2.30908 30.883C2.73579 29.2155 3.14414 27.5526 4.20555 26.1729C5.85426 24.0246 8.04132 22.7092 10.6994 22.1534C14.2293 21.4138 17.776 21.5883 21.3013 22.0446C25.2671 22.5576 29.242 22.8593 33.2338 22.9236C36.1886 22.9726 39.1419 22.9328 42.0983 22.9251C42.447 22.9236 42.7987 22.8822 43.149 22.8577C44.3939 22.7766 45.6389 22.6296 46.8838 22.625C49.2085 22.6158 49.8432 24.7335 48.9806 26.3429C48.5661 27.1161 47.9284 27.6735 47.1163 27.9859C46.2812 28.3059 45.4339 28.6091 44.5683 28.8311C40.3196 29.9183 35.9592 30.1189 31.6096 30.4252C30.2514 30.5201 28.9071 30.834 27.5597 31.076C27.084 31.1586 26.7476 31.419 26.6374 31.9549C26.4111 33.0559 26.1327 34.1446 25.885 35.2394C25.1371 38.55 25.0591 41.905 25.2854 45.2706C25.3328 45.9781 25.5776 46.6794 25.7886 47.3654C25.9018 47.7329 26.2016 47.9457 26.6206 47.8003C26.9556 47.6808 27.0611 47.2582 26.8974 46.8463C26.7827 46.5554 26.639 46.2614 26.6007 45.9551C26.4692 44.9292 26.3744 43.8971 26.2704 42.8651C25.9171 39.2865 26.3101 35.7692 27.1773 32.2979C27.2247 32.105 27.4496 31.8477 27.627 31.8156C28.8031 31.6073 29.9823 31.3991 31.1706 31.2919C34.3396 31.0101 37.5238 30.8861 40.6774 30.4971C43.461 30.1541 46.2521 29.6825 48.7726 28.087C48.7757 28.0977 48.7787 28.1084 48.7818 28.1191Z" fill="#A4C1CF"/>
<path fill-rule="evenodd" clip-rule="evenodd" d="M16.8537 16.2579C19.5593 16.2426 21.2829 15.65 22.3076 14.5322C23.8936 12.8065 24.6185 10.7255 24.6048 8.40564C24.5925 6.32161 23.8798 4.47799 22.4162 2.96358C21.9314 2.46439 21.4848 1.84577 20.8898 1.5533C19.3711 0.810642 17.698 0.597798 16.0538 0.940798C10.5021 2.09995 8.04278 8.44086 11.3081 13.0606C12.8268 15.2105 14.9771 16.1216 16.8537 16.2579ZM17.0633 0.000610352C17.7347 0.106267 18.504 0.190485 19.2564 0.354329C20.532 0.634548 21.5536 1.37874 22.4927 2.25155C24.4671 4.08599 25.498 6.35377 25.4215 9.05183C25.3603 11.191 24.7287 13.1785 23.3736 14.8782C21.962 16.6438 20.0349 17.3512 17.8509 17.3941C14.7156 17.4553 12.3511 16.1032 10.3369 13.664C7.12208 9.76539 9.0369 1.44458 15.8107 0.12311C16.1869 0.0496104 16.5784 0.0450166 17.0633 0.000610352Z" fill="#A4C1CF"/>
<mask id="mask1_5631_5796" style="mask-type:luminance" maskUnits="userSpaceOnUse" x="7" y="34" width="3" height="15">
<path d="M7.54883 34.7346H9.07824V48.1266H7.54883V34.7346Z" fill="white"/>
</mask>
<g mask="url(#mask1_5631_5796)">
<path fill-rule="evenodd" clip-rule="evenodd" d="M8.62175 34.7346C8.68446 35.6319 8.78387 36.4986 8.79916 37.3683C8.84657 40.4094 8.86951 43.4504 8.89551 46.493C8.89857 46.7564 8.85881 47.0182 8.84199 47.2801C8.80222 47.8512 8.50246 48.133 7.84787 48.127C7.8081 47.9018 7.72704 47.669 7.73163 47.4393C7.81575 43.9956 7.91057 40.5518 8.00387 37.108C8.01763 36.546 8.01151 35.981 8.0574 35.4221C8.08034 35.1312 8.10328 34.7759 8.62175 34.7346Z" fill="#A4C1CF"/>
</g>
</svg>
