<svg width="114" height="130" viewBox="0 0 114 130" fill="none" xmlns="http://www.w3.org/2000/svg">
<path fill-rule="evenodd" clip-rule="evenodd" d="M10.7795 45.7787C10.8462 46.7654 10.9319 47.7602 11.1294 48.7265C12.7648 56.7297 16.1004 63.8677 22.1653 69.4555C31.4771 78.0355 42.0411 83.0048 55.1105 80.8095C66.4079 78.9118 74.8285 73.1661 79.9549 62.7776C80.6637 61.3423 81.3455 59.8879 81.9354 58.4011C85.7844 48.7097 86.7428 38.9162 82.4157 29.1311C74.8448 12.0097 60.6037 5.40591 43.4719 4.65475C37.1038 4.37522 31.2244 6.78754 26.2543 10.7417C15.8781 18.9956 11.7653 30.4129 10.768 43.2337C10.768 44.0825 10.7229 44.9339 10.7795 45.7787Z" fill="#E0E9EF"/>
<mask id="mask0_5631_5473" style="mask-type:luminance" maskUnits="userSpaceOnUse" x="0" y="0" width="114" height="130">
<path d="M0 0.443604H113.954V129.807H0V0.443604Z" fill="white"/>
</mask>
<g mask="url(#mask0_5631_5473)">
<path fill-rule="evenodd" clip-rule="evenodd" d="M67.325 72.5543C65.2452 74.0025 63.263 75.3539 61.3299 76.7724C61.1284 76.9206 61.0435 77.6398 61.2035 77.8075C62.3753 79.0383 63.6236 80.1972 64.7945 81.3273C66.881 79.6475 68.769 78.1278 70.635 76.6251C69.4349 75.1494 68.3541 73.8205 67.325 72.5543ZM2.85229 37.4055C2.73475 48.6192 5.19813 55.4156 9.29682 61.5158C14.7348 69.6095 22.5186 74.8086 31.6112 77.9828C36.8305 79.8054 42.2318 79.6333 47.6755 78.8808C54.8292 77.8918 60.8602 74.7079 66.0905 69.8833C70.0535 66.2282 72.4802 61.5167 74.4005 56.5727C77.2037 49.3553 78.6672 42.0087 77.247 34.1342C75.1521 22.5189 64.9739 9.56905 53.6592 5.92106C50.9488 5.04744 48.2026 4.28652 45.494 3.40669C42.3171 2.37512 39.0186 2.24379 35.7484 2.1972C30.6038 2.12311 25.8904 3.89519 21.459 6.35277C16.303 9.21277 12.4605 13.4611 9.5531 18.5492C5.56487 25.528 2.93315 32.9389 2.85229 37.4055ZM75.4274 74.6604C71.3261 78.0746 67.3568 81.3929 63.3699 84.6895C62.1491 85.6985 62.0559 85.8467 63.0907 87.0362C64.753 88.9454 66.527 90.756 68.199 92.6581C75.735 101.234 83.2298 109.846 90.7869 118.403C93.4704 121.442 96.2947 124.355 99.0365 127.342C99.6847 128.049 100.361 128.177 101.288 127.914C104.249 127.073 107.001 125.782 109.488 123.997C110.28 123.429 111.011 122.488 111.3 121.568C111.7 120.295 111.784 118.877 111.754 117.528C111.736 116.757 111.395 115.852 110.9 115.259C108.635 112.544 106.263 109.918 103.93 107.26C96.3451 98.6182 88.7557 89.9796 81.1778 81.3317C79.2486 79.1306 77.3544 76.8984 75.4274 74.6604ZM63.7234 82.543C62.5035 81.0131 61.3467 79.5272 60.1338 78.0884C59.984 77.9109 59.4604 77.8461 59.2363 77.9663C51.8794 81.9098 43.9807 82.7542 35.8562 81.9023C33.4171 81.6467 30.9453 80.9954 28.6605 80.0881C20.6535 76.909 13.6041 72.2654 8.3318 65.3106C3.09708 58.4042 -0.156781 50.6406 0.0058238 41.8423C0.259452 28.1249 5.35852 16.4932 15.8894 7.58311C20.813 3.41778 26.753 1.47666 33.175 1.03563C34.0463 0.975736 34.9 0.609251 35.7687 0.580855C37.7999 0.514746 39.8851 0.280923 41.8566 0.633654C45.6005 1.30318 49.3157 2.2083 52.9791 3.24386C60.8535 5.47072 66.9441 10.2665 71.8576 16.7399C77.5126 24.1903 80.4523 32.5768 80.2229 41.9226C80.086 47.5135 78.615 52.9043 76.4415 58.0706C74.3537 63.0328 71.8603 67.7452 67.9861 71.6181C69.1495 72.816 70.206 73.9692 71.3508 75.026C71.566 75.2248 72.2381 75.1893 72.5195 74.9968C73.242 74.5016 73.8195 73.7948 74.5371 73.289C75.3342 72.7273 75.8339 72.9926 76.1167 73.9177C76.2259 74.2731 76.4389 74.6298 76.6938 74.9014C85.2495 84.0258 93.8296 93.128 102.375 102.263C105.672 105.786 108.89 109.385 112.153 112.94C114.228 115.202 114.461 118.781 113.102 121.557C111.115 125.613 107.492 127.328 103.638 128.825C102.966 129.087 102.263 129.268 101.59 129.525C100.061 130.107 98.7502 129.787 97.6543 128.593C94.0143 124.626 90.2806 120.74 86.7687 116.662C80.1019 108.921 73.5659 101.065 66.9711 93.2607C65.6212 91.6629 64.247 90.0861 62.8967 88.4893C62.6117 88.1525 62.3625 87.782 62.1257 87.4084C60.8898 85.4606 60.9247 85.2721 62.6148 83.7312C62.9948 83.3851 63.3205 82.9782 63.7234 82.543Z" fill="#02374E"/>
</g>
<path fill-rule="evenodd" clip-rule="evenodd" d="M74.5046 82.7266C76.2764 84.5847 78.0682 86.4238 79.8162 88.3046C86.9884 96.0238 94.1771 103.728 101.293 111.5C103.381 113.78 105.256 116.257 107.204 118.664C107.537 119.076 107.74 119.594 108.003 120.063C107.895 120.198 107.786 120.332 107.678 120.467C107.195 120.192 106.608 120.017 106.246 119.629C103.829 117.046 101.465 114.413 99.0747 111.804C95.352 107.742 91.5272 103.77 87.919 99.6075C83.3877 94.38 79.031 89.0003 74.6027 83.6827C74.4312 83.4764 74.2956 83.2399 74.1436 83.0176L74.5046 82.7266Z" fill="#02374E"/>
<path fill-rule="evenodd" clip-rule="evenodd" d="M69.2536 86.4485C69.5938 86.8052 69.9447 87.1522 70.2721 87.5204C76.8982 94.9788 83.4784 102.478 90.1655 109.881C92.9391 112.952 95.9526 115.804 98.8282 118.784C99.7747 119.765 100.679 120.797 101.499 121.884C101.738 122.201 101.617 122.791 101.661 123.256C101.252 123.112 100.734 123.081 100.449 122.807C91.3767 114.109 83.0419 104.734 75.2139 94.9016C73.3112 92.5115 71.5115 90.0379 69.6725 87.5963C69.4423 87.2906 69.2602 86.9485 69.0557 86.6233C69.1215 86.5652 69.1878 86.5066 69.2536 86.4485Z" fill="#02374E"/>
<path fill-rule="evenodd" clip-rule="evenodd" d="M8.26887 41.3806C8.26887 42.1055 8.22999 42.8327 8.27859 43.5546C8.33515 44.3976 8.4085 45.2473 8.57729 46.0725C9.97445 52.9097 12.8245 59.0078 18.0053 63.7809C25.9601 71.1106 34.9846 75.3558 46.1491 73.4808C55.8002 71.8596 62.9942 66.9511 67.3739 58.0765C67.9788 56.8501 68.5612 55.6078 69.0658 54.3375C72.3537 46.0583 73.1724 37.6922 69.4758 29.3327C63.0079 14.7066 50.8421 9.06513 36.2068 8.42356C30.7666 8.18486 25.744 10.2458 21.4982 13.6231C12.6345 20.6742 9.12078 30.4277 8.26887 41.3806ZM40.3758 76.4717C35.9002 76.4384 31.6884 75.4663 27.6873 73.4804C22.7186 71.0135 18.0972 68.0851 14.4465 63.8022C5.9058 53.7834 3.54141 42.5213 7.83585 30.0009C9.5454 25.0161 11.9633 20.38 15.5185 16.4246C20.4859 10.898 26.6693 7.88626 34.0691 7.37291C34.8207 7.32012 35.5617 7.09872 36.3054 6.94786C39.147 6.36974 41.8905 7.01974 44.6247 7.65244C49.2793 8.72971 53.9617 9.77769 58.0201 12.4922C66.4217 18.1114 71.7757 25.8702 73.4296 35.8882C75.2293 46.79 71.827 56.5209 65.3793 65.0902C60.6735 71.3449 54.0134 74.7835 46.2278 75.8403C44.2845 76.1039 42.327 76.264 40.3758 76.4717Z" fill="#02374E"/>
<path fill-rule="evenodd" clip-rule="evenodd" d="M21.0733 56.9442C20.3001 54.29 19.3881 51.6057 18.75 48.8567C17.9392 45.3613 17.5575 41.8109 18.3616 38.2299C18.678 36.8208 18.9599 35.3988 19.1605 33.9692C19.3382 32.7025 18.458 31.3386 17.4426 31.1083C16.4369 30.8798 15.4608 31.5707 14.9496 32.8911C14.8343 33.1883 14.7379 33.4994 14.6858 33.8126C13.6682 39.9616 14.3862 45.9084 16.8461 51.6235C17.7824 53.7993 19.2913 55.5625 21.0733 56.9442ZM12.5225 37.8745C12.8287 36.1566 13.062 34.1094 13.5798 32.1372C14.1335 30.028 16.0193 28.8801 17.8164 29.2826C19.761 29.7187 21.2037 31.9083 20.8838 34.0043C20.757 34.8371 20.62 35.6867 20.3354 36.4729C19.0589 40.0042 18.8799 43.5777 19.4729 47.2838C19.9325 50.1571 20.4428 52.9829 21.6349 55.6535C22.3128 57.1727 23.0175 58.6457 24.5216 59.5624C24.7938 59.7287 24.8932 60.1809 25.0722 60.5012C24.7103 60.5939 24.3228 60.8167 23.9932 60.7501C23.4156 60.6339 22.832 60.4107 22.3229 60.1099C18.4792 57.8351 15.7516 54.6574 14.4096 50.3164C13.4274 47.1392 12.8808 43.91 12.8238 40.5864C12.8106 39.7899 12.6519 38.9962 12.5225 37.8745Z" fill="#02374E"/>
</svg>
